<?xml version="1.0" encoding="UTF-8" standalone="no"?>
<svg
   xmlns:dc="http://purl.org/dc/elements/1.1/"
   xmlns:cc="http://creativecommons.org/ns#"
   xmlns:rdf="http://www.w3.org/1999/02/22-rdf-syntax-ns#"
   xmlns:svg="http://www.w3.org/2000/svg"
   xmlns="http://www.w3.org/2000/svg"
   xmlns:sodipodi="http://sodipodi.sourceforge.net/DTD/sodipodi-0.dtd"
   xmlns:inkscape="http://www.inkscape.org/namespaces/inkscape"
   width="272.71609pt"
   height="384.7226pt"
   version="1.1"
   viewBox="0 0 272.71609 384.7226"
   id="svg149"
   sodipodi:docname="map-pin-basic.svg"
   inkscape:version="1.0.2-2 (e86c870879, 2021-01-15)">
  <metadata
     id="metadata153">
    <rdf:RDF>
      <cc:Work
         rdf:about="">
        <dc:format>image/svg+xml</dc:format>
        <dc:type
           rdf:resource="http://purl.org/dc/dcmitype/StillImage" />
        <dc:title></dc:title>
      </cc:Work>
    </rdf:RDF>
  </metadata>
  <sodipodi:namedview
     pagecolor="#ffffff"
     bordercolor="#666666"
     borderopacity="1"
     objecttolerance="10"
     gridtolerance="10"
     guidetolerance="10"
     inkscape:pageopacity="0"
     inkscape:pageshadow="2"
     inkscape:window-width="1920"
     inkscape:window-height="1017"
     id="namedview151"
     showgrid="false"
     inkscape:zoom="0.91071429"
     inkscape:cx="172.19272"
     inkscape:cy="349.6313"
     inkscape:window-x="-8"
     inkscape:window-y="-8"
     inkscape:window-maximized="1"
     inkscape:current-layer="svg149"
     fit-margin-top="0"
     fit-margin-left="0"
     fit-margin-right="0"
     fit-margin-bottom="0" />
  <defs
     id="defs65">
    <symbol
       id="u"
       overflow="visible">
      <path
         d="m 23.453,-1.4062 c -1.2109,0.625 -2.4688,1.1016 -3.7812,1.4219 -1.3124,0.3203 -2.6836,0.48438 -4.1094,0.48438 -4.25,0 -7.6172,-1.1875 -10.094,-3.5625 -2.4805,-2.375 -3.7188,-5.5977 -3.7188,-9.6719 0,-4.0703 1.2383,-7.2969 3.7188,-9.6719 2.4766,-2.3828 5.8438,-3.5781 10.094,-3.5781 1.4258,0 2.7969,0.16406 4.1094,0.48438 1.3125,0.32422 2.5703,0.79688 3.7812,1.4219 v 5.2812 c -1.2188,-0.83203 -2.4219,-1.4414 -3.6094,-1.8281 -1.1875,-0.38281 -2.4375,-0.57812 -3.75,-0.57812 -2.3438,0 -4.1875,0.75 -5.5312,2.25 -1.3437,1.5 -2.0156,3.5742 -2.0156,6.2188 0,2.6367 0.67188,4.7109 2.0156,6.2188 1.3438,1.5 3.1875,2.25 5.5312,2.25 1.3125,0 2.5625,-0.19141 3.75,-0.57812 1.1875,-0.39453 2.3906,-1.0078 3.6094,-1.8438 z"
         id="path2" />
    </symbol>
    <symbol
       id="b"
       overflow="visible">
      <path
         d="m 17.156,-13.922 c -0.53125,-0.25 -1.0625,-0.42969 -1.5938,-0.54688 -0.53125,-0.125 -1.0625,-0.1875 -1.5938,-0.1875 -1.5742,0 -2.7891,0.50781 -3.6406,1.5156 -0.84375,1 -1.2656,2.4453 -1.2656,4.3281 v 8.8125 h -6.125 v -19.141 h 6.125 v 3.1406 c 0.78125,-1.25 1.6797,-2.1602 2.7031,-2.7344 1.0195,-0.58203 2.2422,-0.875 3.6719,-0.875 0.19531,0 0.41406,0.01172 0.65625,0.03125 0.23828,0.02344 0.58594,0.05859 1.0469,0.10938 z"
         id="path5" />
    </symbol>
    <symbol
       id="a"
       overflow="visible">
      <path
         d="m 22.047,-9.625 v 1.75 H 7.735 c 0.15625,1.4375 0.67578,2.5156 1.5625,3.2344 0.88281,0.71094 2.125,1.0625 3.7188,1.0625 1.2891,0 2.6094,-0.1875 3.9531,-0.5625 1.3516,-0.38281 2.7422,-0.96094 4.1719,-1.7344 v 4.7188 c -1.4492,0.54297 -2.8984,0.95312 -4.3438,1.2344 -1.4492,0.28125 -2.8984,0.42188 -4.3438,0.42188 -3.4609,0 -6.1523,-0.87891 -8.0781,-2.6406 -1.918,-1.7578 -2.875,-4.2266 -2.875,-7.4062 0,-3.125 0.94141,-5.582 2.8281,-7.375 1.8828,-1.7891 4.4766,-2.6875 7.7812,-2.6875 3.0078,0 5.4141,0.90625 7.2188,2.7188 1.8125,1.8125 2.7188,4.2344 2.7188,7.2656 z m -6.2969,-2.0312 c 0,-1.1641 -0.33984,-2.1016 -1.0156,-2.8125 -0.67969,-0.70703 -1.5625,-1.0625 -2.6562,-1.0625 -1.1797,0 -2.1406,0.33594 -2.8906,1 -0.74219,0.66797 -1.1992,1.625 -1.375,2.875 z"
         id="path8" />
    </symbol>
    <symbol
       id="e"
       overflow="visible">
      <path
         d="m 11.516,-8.6094 c -1.2734,0 -2.2305,0.21875 -2.875,0.65625 -0.64844,0.42969 -0.96875,1.0625 -0.96875,1.9062 0,0.77344 0.25781,1.375 0.78125,1.8125 0.51953,0.4375 1.2383,0.65625 2.1562,0.65625 1.1562,0 2.125,-0.41016 2.9062,-1.2344 0.78906,-0.82031 1.1875,-1.8516 1.1875,-3.0938 v -0.70312 z m 9.3438,-2.3125 V 10e-5 h -6.1562 v -2.8438 c -0.82422,1.168 -1.75,2.0156 -2.7812,2.5469 -1.0234,0.53125 -2.2656,0.79688 -3.7344,0.79688 -1.9805,0 -3.5898,-0.57812 -4.8281,-1.7344 -1.2422,-1.1562 -1.8594,-2.6602 -1.8594,-4.5156 0,-2.2383 0.76953,-3.8789 2.3125,-4.9219 1.5508,-1.0508 3.9766,-1.5781 7.2812,-1.5781 h 3.6094 v -0.48438 c 0,-0.96875 -0.38672,-1.6758 -1.1562,-2.125 -0.76172,-0.44531 -1.9492,-0.67188 -3.5625,-0.67188 -1.3125,0 -2.5391,0.13281 -3.6719,0.39062 -1.125,0.26172 -2.1719,0.65234 -3.1406,1.1719 v -4.6562 c 1.3125,-0.32031 2.6289,-0.56641 3.9531,-0.73438 1.3203,-0.16406 2.6445,-0.25 3.9688,-0.25 3.4453,0 5.9375,0.68359 7.4688,2.0469 1.5312,1.3672 2.2969,3.5781 2.2969,6.6406 z"
         id="path11" />
    </symbol>
    <symbol
       id="c"
       overflow="visible">
      <path
         d="m 9.625,-24.578 v 5.4375 h 6.2969 v 4.375 H 9.625 v 8.125 c 0,0.88672 0.17578,1.4844 0.53125,1.7969 0.35156,0.3125 1.0508,0.46875 2.0938,0.46875 h 3.1406 v 4.375 h -5.2344 c -2.418,0 -4.1328,-0.50391 -5.1406,-1.5156 -1.0117,-1.0078 -1.5156,-2.7188 -1.5156,-5.125 v -8.125 h -3.0312 v -4.375 h 3.0312 v -5.4375 z"
         id="path14" />
    </symbol>
    <symbol
       id="j"
       overflow="visible">
      <path
         d="m 15.969,-16.344 v -10.25 h 6.1406 V 0 H 15.969 v -2.7656 c -0.84375,1.125 -1.7773,1.9531 -2.7969,2.4844 -1.0117,0.51953 -2.1836,0.78125 -3.5156,0.78125 -2.3555,0 -4.293,-0.9375 -5.8125,-2.8125 -1.5117,-1.875 -2.2656,-4.2852 -2.2656,-7.2344 0,-2.957 0.75391,-5.375 2.2656,-7.25 1.5195,-1.875 3.457,-2.8125 5.8125,-2.8125 1.3203,0 2.4922,0.26562 3.5156,0.79688 1.0195,0.53125 1.9531,1.3555 2.7969,2.4688 z m -4.0469,12.391 c 1.3125,0 2.3125,-0.47266 3,-1.4219 0.69531,-0.95703 1.0469,-2.3477 1.0469,-4.1719 0,-1.8203 -0.35156,-3.2109 -1.0469,-4.1719 -0.6875,-0.95703 -1.6875,-1.4375 -3,-1.4375 -1.293,0 -2.2891,0.48047 -2.9844,1.4375 -0.6875,0.96094 -1.0312,2.3516 -1.0312,4.1719 0,1.8242 0.34375,3.2148 1.0312,4.1719 0.69531,0.94922 1.6914,1.4219 2.9844,1.4219 z"
         id="path17" />
    </symbol>
    <symbol
       id="i"
       overflow="visible">
      <path
         d="m 13.125,-3.9531 c 1.3125,0 2.3125,-0.47266 3,-1.4219 0.6875,-0.95703 1.0312,-2.3477 1.0312,-4.1719 0,-1.8203 -0.34375,-3.2109 -1.0312,-4.1719 -0.6875,-0.95703 -1.6875,-1.4375 -3,-1.4375 -1.3125,0 -2.3203,0.48438 -3.0156,1.4531 -0.69922,0.96094 -1.0469,2.3438 -1.0469,4.1562 0,1.8047 0.34766,3.1875 1.0469,4.1562 0.69531,0.96094 1.7031,1.4375 3.0156,1.4375 z m -4.0625,-12.391 c 0.84375,-1.1133 1.7734,-1.9375 2.7969,-2.4688 1.0312,-0.53125 2.207,-0.79688 3.5312,-0.79688 2.3633,0 4.3008,0.9375 5.8125,2.8125 1.5195,1.875 2.2812,4.293 2.2812,7.25 0,2.9492 -0.76172,5.3594 -2.2812,7.2344 -1.5117,1.875 -3.4492,2.8125 -5.8125,2.8125 -1.3242,0 -2.5,-0.26562 -3.5312,-0.79688 -1.0234,-0.53125 -1.9531,-1.3516 -2.7969,-2.4688 v 2.7656 h -6.125 v -26.594 h 6.125 z"
         id="path20" />
    </symbol>
    <symbol
       id="h"
       overflow="visible">
      <path
         d="m 0.42188,-19.141 h 6.125 l 5.1406,12.984 4.375,-12.984 h 6.125 l -8.0469,20.953 c -0.8125,2.125 -1.7617,3.6094 -2.8438,4.4531 -1.0742,0.85156 -2.4922,1.2812 -4.25,1.2812 H 3.49988 V 3.5307 h 1.9219 c 1.0312,0 1.7812,-0.16797 2.25,-0.5 C 8.14834,2.70648 8.51944,2.11664 8.78118,1.2651 L 8.95306,0.73385 Z"
         id="path23" />
    </symbol>
    <symbol
       id="g"
       overflow="visible">
      <path
         d="m 1.0469,-25.516 h 6.2969 l 4.4219,18.547 4.375,-18.547 h 6.3281 l 4.375,18.547 4.4062,-18.547 h 6.2656 L 31.5,0 H 23.9062 L 19.2812,-19.391 14.7031,0 H 7.1093 Z"
         id="path26" />
    </symbol>
    <symbol
       id="t"
       overflow="visible">
      <path
         d="m 2.9375,-26.594 h 6.125 V 0 h -6.125 z"
         id="path29" />
    </symbol>
    <symbol
       id="f"
       overflow="visible">
      <path
         d="M 22.188,-11.656 V 0 h -6.1562 v -8.9219 c 0,-1.6562 -0.03906,-2.7969 -0.10938,-3.4219 -0.07422,-0.625 -0.20312,-1.082 -0.39062,-1.375 -0.24219,-0.40625 -0.5625,-0.71875 -0.96875,-0.9375 -0.40625,-0.21875 -0.875,-0.32812 -1.4062,-0.32812 -1.2734,0 -2.2734,0.49609 -3,1.4844 -0.73047,0.98047 -1.0938,2.3398 -1.0938,4.0781 V -2e-5 h -6.125 v -19.141 h 6.125 v 2.7969 c 0.91406,-1.1133 1.8906,-1.9375 2.9219,-2.4688 1.0391,-0.53125 2.1914,-0.79688 3.4531,-0.79688 2.207,0 3.8828,0.68359 5.0312,2.0469 1.1445,1.3555 1.7188,3.3242 1.7188,5.9062 z"
         id="path32" />
    </symbol>
    <symbol
       id="s"
       overflow="visible">
      <path
         d="m 17.891,-18.547 v 4.6562 c -1.3125,-0.55078 -2.5781,-0.96094 -3.7969,-1.2344 -1.2188,-0.26953 -2.3711,-0.40625 -3.4531,-0.40625 -1.1562,0 -2.0156,0.14844 -2.5781,0.4375 -0.5625,0.29297 -0.84375,0.74219 -0.84375,1.3438 0,0.49219 0.21094,0.86719 0.64062,1.125 0.42578,0.26172 1.1914,0.45312 2.2969,0.57812 l 1.0781,0.15625 c 3.125,0.39844 5.2266,1.0547 6.3125,1.9688 1.082,0.90625 1.625,2.3359 1.625,4.2812 0,2.043 -0.75781,3.5781 -2.2656,4.6094 -1.5,1.0234 -3.7422,1.5312 -6.7188,1.5312 -1.2734,0 -2.5859,-0.10547 -3.9375,-0.3125 -1.3438,-0.19531 -2.7266,-0.49219 -4.1406,-0.89062 v -4.6406 c 1.2188,0.59375 2.4688,1.0391 3.75,1.3281 1.2812,0.29297 2.582,0.4375 3.9062,0.4375 1.1875,0 2.082,-0.16016 2.6875,-0.48438 0.60156,-0.33203 0.90625,-0.82031 0.90625,-1.4688 0,-0.55078 -0.21094,-0.95703 -0.625,-1.2188 -0.41797,-0.26953 -1.2461,-0.48438 -2.4844,-0.64062 l -1.0781,-0.125 c -2.7188,-0.34375 -4.625,-0.97266 -5.7188,-1.8906 -1.0938,-0.92578 -1.6406,-2.332 -1.6406,-4.2188 0,-2.0195 0.69141,-3.5195 2.0781,-4.5 1.3945,-0.98828 3.5234,-1.4844 6.3906,-1.4844 1.1328,0 2.3203,0.08984 3.5625,0.26562 1.2383,0.16797 2.5859,0.43359 4.0469,0.79688 z"
         id="path35" />
    </symbol>
    <symbol
       id="r"
       overflow="visible">
      <path
         d="m 15.531,-26.594 v 4.0156 h -3.375 c -0.86719,0 -1.4688,0.15625 -1.8125,0.46875 -0.3437,0.3125 -0.51562,0.85938 -0.51562,1.6406 v 1.3281 h 5.2344 v 4.375 H 9.82788 V 5e-5 h -6.125 v -14.766 h -3.0312 v -4.375 h 3.0312 v -1.3281 c 0,-2.082 0.57812,-3.625 1.7344,-4.625 1.1641,-1 2.9727,-1.5 5.4219,-1.5 z"
         id="path38" />
    </symbol>
    <symbol
       id="d"
       overflow="visible">
      <path
         d="m 12.047,-15.234 c -1.3555,0 -2.3906,0.49219 -3.1094,1.4688 -0.71094,0.96875 -1.0625,2.375 -1.0625,4.2188 0,1.8359 0.35156,3.2422 1.0625,4.2188 0.71875,0.96875 1.7539,1.4531 3.1094,1.4531 1.332,0 2.3516,-0.48438 3.0625,-1.4531 0.70703,-0.97656 1.0625,-2.3828 1.0625,-4.2188 0,-1.8438 -0.35547,-3.25 -1.0625,-4.2188 -0.71094,-0.97656 -1.7305,-1.4688 -3.0625,-1.4688 z m 0,-4.375 c 3.2891,0 5.8633,0.89062 7.7188,2.6719 1.8516,1.7812 2.7812,4.2461 2.7812,7.3906 0,3.1367 -0.92969,5.5938 -2.7812,7.375 -1.8555,1.7812 -4.4297,2.6719 -7.7188,2.6719 -3.3047,0 -5.8867,-0.89062 -7.75,-2.6719 -1.8672,-1.7812 -2.7969,-4.2383 -2.7969,-7.375 0,-3.1445 0.92969,-5.6094 2.7969,-7.3906 1.8633,-1.7812 4.4453,-2.6719 7.75,-2.6719 z"
         id="path41" />
    </symbol>
    <symbol
       id="q"
       overflow="visible">
      <path
         d="m 20.672,-15.969 c 0.78125,-1.1758 1.7031,-2.0781 2.7656,-2.7031 1.0625,-0.625 2.2344,-0.9375 3.5156,-0.9375 2.1953,0 3.8672,0.68359 5.0156,2.0469 1.1562,1.3555 1.7344,3.3242 1.7344,5.9062 V -5e-4 H 27.547 v -9.9844 c 0.0078,-0.14453 0.01563,-0.29688 0.01563,-0.45312 0.0078,-0.16406 0.01563,-0.39453 0.01563,-0.6875 0,-1.3516 -0.19922,-2.332 -0.59375,-2.9375 -0.39844,-0.61328 -1.043,-0.92188 -1.9375,-0.92188 -1.1562,0 -2.0547,0.48047 -2.6875,1.4375 -0.63672,0.96094 -0.96484,2.3398 -0.98438,4.1406 V -6e-4 h -6.1406 V -9.985 c 0,-2.1133 -0.18359,-3.4727 -0.54688,-4.0781 -0.36719,-0.61328 -1.0156,-0.92188 -1.9531,-0.92188 -1.1797,0 -2.0859,0.48438 -2.7188,1.4531 -0.63672,0.96094 -0.95312,2.3281 -0.95312,4.1094 v 9.4219 h -6.1562 v -19.141 h 6.1562 v 2.7969 c 0.75,-1.082 1.6094,-1.8945 2.5781,-2.4375 0.97656,-0.55078 2.0547,-0.82812 3.2344,-0.82812 1.3125,0 2.4727,0.32422 3.4844,0.96875 1.0195,0.63672 1.7891,1.5273 2.3125,2.6719 z"
         id="path44" />
    </symbol>
    <symbol
       id="p"
       overflow="visible">
      <path
         d="M 22.188,-11.656 V 0 h -6.1562 v -8.8906 c 0,-1.6758 -0.03906,-2.8281 -0.10938,-3.4531 -0.07422,-0.625 -0.20312,-1.082 -0.39062,-1.375 -0.24219,-0.40625 -0.5625,-0.71875 -0.96875,-0.9375 -0.40625,-0.21875 -0.875,-0.32812 -1.4062,-0.32812 -1.2734,0 -2.2734,0.49609 -3,1.4844 -0.73047,0.98047 -1.0938,2.3398 -1.0938,4.0781 V 8e-5 h -6.125 v -26.594 h 6.125 v 10.25 c 0.91406,-1.1133 1.8906,-1.9375 2.9219,-2.4688 1.0391,-0.53125 2.1914,-0.79688 3.4531,-0.79688 2.207,0 3.8828,0.68359 5.0312,2.0469 1.1445,1.3555 1.7188,3.3242 1.7188,5.9062 z"
         id="path47" />
    </symbol>
    <symbol
       id="o"
       overflow="visible">
      <path
         d="m 3.2188,-25.516 h 7.3438 l 9.2812,17.5 v -17.5 h 6.2344 V 0 H 18.7344 L 9.4532,-17.5 V 0 H 3.2188 Z"
         id="path50" />
    </symbol>
    <symbol
       id="n"
       overflow="visible">
      <path
         d="m 2.7344,-7.4531 v -11.688 h 6.1562 v 1.9062 c 0,1.043 -0.00781,2.3516 -0.015625,3.9219 -0.011719,1.5625 -0.015625,2.6055 -0.015625,3.125 0,1.543 0.035156,2.6523 0.10938,3.3281 0.082031,0.67969 0.21875,1.168 0.40625,1.4688 0.25781,0.40625 0.58594,0.71875 0.98438,0.9375 0.40625,0.21094 0.875,0.3125 1.4062,0.3125 1.2695,0 2.2695,-0.48828 3,-1.4688 0.72656,-0.97656 1.0938,-2.3359 1.0938,-4.0781 v -9.4531 h 6.125 V -1e-4 h -6.125 v -2.7656 c -0.92969,1.1172 -1.9062,1.9375 -2.9375,2.4688 -1.0313,0.5313 -2.168,0.79688 -3.4062,0.79688 -2.2109,0 -3.8906,-0.67578 -5.0469,-2.0312 -1.1562,-1.3633 -1.7344,-3.3359 -1.7344,-5.9219 z"
         id="path53" />
    </symbol>
    <symbol
       id="m"
       overflow="visible">
      <path
         d="m 3.2188,-25.516 h 10.922 c 3.2383,0 5.7266,0.72656 7.4688,2.1719 1.7383,1.4375 2.6094,3.4922 2.6094,6.1562 0,2.6797 -0.87109,4.7344 -2.6094,6.1719 -1.7422,1.4375 -4.2305,2.1562 -7.4688,2.1562 H 9.797 V -4e-4 H 3.2189 Z m 6.5781,4.7656 v 7.125 h 3.6406 c 1.2695,0 2.2539,-0.30469 2.9531,-0.92188 0.69531,-0.625 1.0469,-1.5039 1.0469,-2.6406 0,-1.1445 -0.35156,-2.0234 -1.0469,-2.6406 -0.69922,-0.61328 -1.6836,-0.92188 -2.9531,-0.92188 z"
         id="path56" />
    </symbol>
    <symbol
       id="l"
       overflow="visible">
      <path
         d="m 2.9375,-19.141 h 6.125 v 18.797 c 0,2.5625 -0.62109,4.5156 -1.8594,5.8594 C 5.9726,6.867 4.1914,7.5466 1.8593,7.5466 H -1.1563 V 3.531 h 1.0469 c 1.1641,0 1.9609,-0.26172 2.3906,-0.78125 0.4375,-0.52344 0.65625,-1.5547 0.65625,-3.0938 z m 0,-7.4531 h 6.125 v 4.9844 h -6.125 z"
         id="path59" />
    </symbol>
    <symbol
       id="k"
       overflow="visible">
      <path
         d="m 18.406,-18.547 v 5 c -0.83594,-0.57031 -1.6719,-0.99219 -2.5156,-1.2656 -0.83594,-0.28125 -1.6992,-0.42188 -2.5938,-0.42188 -1.7109,0 -3.043,0.5 -4,1.5 -0.94922,1 -1.4219,2.3984 -1.4219,4.1875 0,1.7812 0.47266,3.1719 1.4219,4.1719 0.95703,1 2.2891,1.5 4,1.5 0.95703,0 1.8633,-0.14062 2.7188,-0.42188 0.86328,-0.28906 1.6602,-0.71875 2.3906,-1.2812 v 5.0156 c -0.96094,0.35547 -1.9336,0.61719 -2.9219,0.79688 -0.98047,0.17578 -1.9648,0.26562 -2.9531,0.26562 -3.4609,0 -6.1641,-0.88281 -8.1094,-2.6562 -1.9492,-1.7695 -2.9219,-4.2344 -2.9219,-7.3906 0,-3.1562 0.97266,-5.6172 2.9219,-7.3906 1.9453,-1.7812 4.6484,-2.6719 8.1094,-2.6719 1,0 1.9844,0.08984 2.9531,0.26562 0.97656,0.17969 1.9531,0.44531 2.9219,0.79688 z"
         id="path62" />
    </symbol>
  </defs>
  <path
     d="m 192.07454,129.85348 c 0,30.5431 -24.7576,55.3007 -55.3007,55.3007 -30.5389,0 -55.300702,-24.7576 -55.300702,-55.3007 0,-30.538904 24.761802,-55.300704 55.300702,-55.300704 30.5431,0 55.3007,24.7618 55.3007,55.300704"
     fill="none"
     stroke="#000000"
     stroke-linecap="round"
     stroke-linejoin="round"
     stroke-width="21"
     id="path67" />
  <path
     d="m 136.14454,374.22348 c 0,0 -84.000002,-127.96 -111.580002,-182 -9.8749,-19.4964 -14.6874,-41.16 -14,-63 2.49606,-43.214504 27.0039,-82.124004 64.8984,-103.040004 37.898702,-20.9180998 83.881002,-20.9180998 121.779002,0 37.8987,20.9181 62.4022,59.8241 64.9026,103.040004 0.7266,21.8435 -4.08982,43.5197 -14,63 -28,53.8986 -112,182 -112,182 z"
     fill="none"
     stroke="#000000"
     stroke-linejoin="round"
     stroke-width="21"
     id="path69" />
</svg>
